<?xml version="1.0" encoding="UTF-8"?>
<svg version="1.1" xmlns="http://www.w3.org/2000/svg" width="225" height="225">
<path d="M0 0 C0.72203613 0.23219238 1.44407227 0.46438477 2.18798828 0.70361328 C8.18147201 2.77479857 14.18122392 5.5066221 18.3125 10.4375 C20.38417266 15.67761319 20.85265608 19.46725243 19.3125 24.8125 C16.78478339 29.13408001 13.91474732 31.85512634 9.375 34.125 C3.47212772 34.96313602 -1.21563853 34.10160788 -6.6875 31.8125 C-26.26550269 23.70490359 -48.72440425 24.16533549 -68.5 31.4375 C-87.69448828 39.48295093 -103.3298198 52.14874784 -112.10546875 71.3671875 C-119.39047506 89.52629413 -120.49631109 109.81423037 -112.79541016 128.09423828 C-103.65912572 148.09502572 -88.02059733 162.18805665 -67.625 170.125 C-59.57930084 172.81737108 -51.1121057 174.73328743 -42.625 175.125 C-41.9340625 175.1765625 -41.243125 175.228125 -40.53125 175.28125 C-22.5767269 176.01910711 -5.76644865 170.77262597 9.25 161.25 C13.94311792 158.28421439 17.80701676 155.93142592 23.515625 156.62890625 C29.08444104 158.11470381 32.10919797 160.4077304 35.375 165.125 C36.56814542 167.51129084 36.6100148 169.14945596 36.6875 171.8125 C36.72488281 172.64136719 36.76226562 173.47023437 36.80078125 174.32421875 C35.96973807 179.79080552 33.54677416 183.17016447 29.37890625 186.56640625 C28.24381946 187.29262304 27.09593991 187.99914702 25.9375 188.6875 C25.01106689 189.25645996 25.01106689 189.25645996 24.06591797 189.83691406 C-3.18506943 206.23339997 -34.67478916 210.90612411 -65.625 204.125 C-74.44018676 201.88627855 -82.23451915 199.18240556 -89.75 194 C-97.86878513 189.22852449 -106.36507764 192.09777087 -115.05078125 194.00390625 C-126.0582837 196.40835815 -126.0582837 196.40835815 -130.625 194.125 C-132.8946452 189.5857096 -131.69435936 184.01989002 -130.65234375 179.2421875 C-127.97569961 168.01066708 -127.97569961 168.01066708 -131.27880859 157.42089844 C-132.92465688 155.16896208 -134.63414142 152.97634407 -136.37939453 150.80078125 C-149.66079158 132.93259047 -151.99694594 106.21102743 -148.9765625 84.90234375 C-146.35105832 69.38582359 -140.91890187 54.90158406 -131.625 42.125 C-131.04363281 41.32191406 -130.46226562 40.51882812 -129.86328125 39.69140625 C-111.20399101 15.24265069 -85.11091817 -0.04315499 -54.8125 -5.1875 C-36.08068414 -7.41901071 -17.92780605 -5.80006326 0 0 Z " fill="#013780" transform="translate(150.625,11.875)"/>
<path d="M0 0 C10.80135928 10.04279053 18.41356607 24.03051088 19.546875 38.875 C19.796224 50.01696321 19.796224 50.01696321 15.30859375 54.75390625 C10.2942362 59.29816778 4.98668973 58.89530602 -1.49902344 58.86743164 C-2.38718246 58.86757767 -3.27534149 58.86772369 -4.19041443 58.86787415 C-7.12306163 58.86717805 -10.05564515 58.85939982 -12.98828125 58.8515625 C-15.02280645 58.84969724 -17.0573321 58.84827385 -19.09185791 58.84727478 C-24.44465374 58.84345809 -29.79742241 58.83363501 -35.15020752 58.8225708 C-40.61315544 58.81233847 -46.07610776 58.80777325 -51.5390625 58.80273438 C-62.25652235 58.79201201 -72.97396204 58.77494573 -83.69140625 58.75390625 C-82.74104362 60.04803032 -81.78695814 61.33942104 -80.83129883 62.62963867 C-80.30039139 63.3490715 -79.76948395 64.06850433 -79.2224884 64.80973816 C-73.36597434 72.24633961 -63.69161964 75.21761605 -54.69140625 76.75390625 C-42.66945741 77.64952422 -32.05705884 75.07090453 -21.890625 68.609375 C-17.60546142 65.92045861 -14.72489896 65.1132799 -9.69140625 65.75390625 C-5.00970357 67.49806999 -2.47891434 69.62426464 0.30859375 73.75390625 C1.95033026 78.67911578 1.82268463 82.38299723 -0.00390625 87.25390625 C-6.39341942 97.28814172 -22.39713381 102.6851108 -33.46484375 105.1875 C-52.68544785 108.56157699 -72.82173947 105.89641895 -89.1328125 94.69921875 C-102.14444911 84.80640191 -113.49262089 72.1243797 -116.44140625 55.4453125 C-118.06003789 38.01973129 -115.78178938 22.23915841 -104.5859375 8.09375 C-102.36426536 5.55852 -100.06852625 3.14334293 -97.69140625 0.75390625 C-97.09972656 0.12742187 -96.50804688 -0.4990625 -95.8984375 -1.14453125 C-86.89304585 -9.93124893 -73.88539127 -15.05984605 -61.69140625 -17.24609375 C-60.53640625 -17.47296875 -59.38140625 -17.69984375 -58.19140625 -17.93359375 C-36.57220545 -19.86387954 -16.68491289 -13.92427418 0 0 Z M-81.75390625 25.06640625 C-83.80668884 27.15098057 -83.80668884 27.15098057 -84.69140625 29.75390625 C-60.93140625 29.75390625 -37.17140625 29.75390625 -12.69140625 29.75390625 C-19.48644893 19.56134223 -27.14259256 14.13731444 -39.1484375 11.140625 C-55.39368538 8.67014952 -70.68039222 12.71092852 -81.75390625 25.06640625 Z " fill="#E4303A" transform="translate(161.69140625,68.24609375)"/>
<path d="M0 0 C6.59597604 4.31736613 7.90366515 12.25966782 9.63671875 19.47265625 C14.66342548 44.2860175 10.57323591 69.78849148 -1.87109375 91.828125 C-4.58766167 95.69118624 -7.08635025 97.64499755 -11.75 98.5 C-16.56699329 98.85226312 -20.34157843 98.20060644 -24.1875 95.1875 C-28.38277193 90.78758066 -29.30394202 87.39219369 -29.20703125 81.41015625 C-28.47531373 76.75092932 -26.37193929 72.87092782 -24.28125 68.6796875 C-16.67619062 52.88754889 -17.80182457 36.11523828 -21.75 19.5 C-23.01910987 13.64799336 -23.19947307 9.5323151 -20.109375 4.23046875 C-15.07083435 -2.18353559 -7.22169174 -3.45653622 0 0 Z " fill="#E5303A" transform="translate(212.75,71.5)"/>
<path d="M0 0 C5.01665118 2.93107709 8.55958133 6.27764008 10.37109375 11.97265625 C11.33374319 16.74851902 10.46997528 20.06044725 8.0859375 24.265625 C5.3633011 28.05786856 2.24870075 30.60199558 -2.2265625 32.09375 C-8.52734717 32.87715129 -13.31601115 32.40562618 -18.53125 28.63671875 C-22.64495891 24.89267493 -24.42390747 21.15503618 -24.7265625 15.59375 C-24.47920911 10.75386857 -23.11989744 7.97691005 -20.2265625 4.09375 C-14.19067612 -0.58714148 -7.39873389 -3.01141449 0 0 Z " fill="#E1303A" transform="translate(193.2265625,37.90625)"/>
<path d="M0 0 C1.25262369 2.50524739 1.86863344 4.175619 2 7 C0.81859522 8.11389593 -0.36860586 9.2223588 -1.5859375 10.296875 C-6.54754468 16.27273337 -7.2703831 24.5644648 -7 32 C-7.66 32.99 -8.32 33.98 -9 35 C-9.36844508 37.8086043 -9.36844508 37.8086043 -9.4140625 40.98046875 C-9.45273438 42.14384766 -9.49140625 43.30722656 -9.53125 44.50585938 C-9.5621875 45.72080078 -9.593125 46.93574219 -9.625 48.1875 C-9.66367188 49.41404297 -9.70234375 50.64058594 -9.7421875 51.90429688 C-9.83656103 54.93604656 -9.92214549 57.96778841 -10 61 C-9.34 61.33 -8.68 61.66 -8 62 C-8.04125 63.19625 -8.0825 64.3925 -8.125 65.625 C-8.1384922 69.45678587 -7.26103262 72.37453122 -6 76 C-5.875 79.375 -5.875 79.375 -6 82 C-15.42006545 67.86990182 -13.44716756 43.64110625 -10.4375 27.75 C-5.87805164 5.87805164 -5.87805164 5.87805164 0 0 Z " fill="#0B2E68" transform="translate(13,64)"/>
<path d="M0 0 C0.66 0 1.32 0 2 0 C1.85980308 2.81288705 1.71312045 5.62516885 1.5625 8.4375 C1.50352539 9.64116211 1.50352539 9.64116211 1.44335938 10.86914062 C1.11328125 16.88671875 1.11328125 16.88671875 0 18 C-0.07148199 19.35243917 -0.08399454 20.70834367 -0.0625 22.0625 C-0.041875 23.361875 -0.02125 24.66125 0 26 C0.66 26 1.32 26 2 26 C2.33 24.68 2.66 23.36 3 22 C3.33 22.66 3.66 23.32 4 24 C5.32 24 6.64 24 8 24 C8 24.99 8 25.98 8 27 C8.556875 26.855625 9.11375 26.71125 9.6875 26.5625 C14.94136317 25.28453328 19.59708529 24.80353037 25 25 C25 25.33 25 25.66 25 26 C22.3347536 26.50881977 19.66821581 27.00720141 17 27.5 C16.25621094 27.64308594 15.51242188 27.78617188 14.74609375 27.93359375 C2.38256369 30.19128185 2.38256369 30.19128185 -2 28 C-4.80594713 22.38810574 -2.57057519 14.42192041 -1.5 8.5 C-1.35691406 7.67757812 -1.21382812 6.85515625 -1.06640625 6.0078125 C-0.71693088 4.00415373 -0.35931844 2.00191702 0 0 Z " fill="#0D3068" transform="translate(22,178)"/>
<path d="M0 0 C3.36306044 1.23564786 6.05923273 2.62977144 8.9375 4.75 C20.0316824 12.27490979 32.91068358 16.28996169 46.1875 17.5625 C50 18 50 18 52 20 C41.97379989 20.38398213 33.24833916 18.82746541 24 15 C23.03707031 14.62746094 22.07414062 14.25492188 21.08203125 13.87109375 C16.37895135 12.0073888 12.00586017 10.23015072 7.9375 7.1875 C5.20939867 4.70136693 5.20939867 4.70136693 2 5 C1.34 3.35 0.68 1.7 0 0 Z " fill="#0B2E65" transform="translate(58,169)"/>
<path d="M0 0 C0 3.62941351 -0.64760255 4.32313393 -3 7 C-3.825 7.639375 -4.65 8.27875 -5.5 8.9375 C-8.15005981 11.12379935 -9.33286438 13.02814955 -11 16 C-11.639375 16.763125 -12.27875 17.52625 -12.9375 18.3125 C-15.12316411 21.16048657 -16.4687522 23.94713125 -17.875 27.23046875 C-19.28253832 29.44440924 -20.60440903 30.0127545 -23 31 C-23.66 31.33 -24.32 31.66 -25 32 C-21.39771886 19.07416769 -9.41651393 9.01800942 0 0 Z " fill="#063071" transform="translate(39,32)"/>
<path d="M0 0 C1.68869029 0.95863024 3.31790572 2.0205309 4.93359375 3.09765625 C4.60359375 3.75765625 4.27359375 4.41765625 3.93359375 5.09765625 C2.26692708 5.09765625 0.60026042 5.09765625 -1.06640625 5.09765625 C-1.39640625 5.75765625 -1.72640625 6.41765625 -2.06640625 7.09765625 C-1.73640625 5.77765625 -1.40640625 4.45765625 -1.06640625 3.09765625 C-3.35346456 1.95412709 -4.65905387 1.99431186 -7.19140625 2.03515625 C-8.47015625 2.05578125 -9.74890625 2.07640625 -11.06640625 2.09765625 C-11.06640625 2.75765625 -11.06640625 3.41765625 -11.06640625 4.09765625 C-15.53699449 8.09765625 -15.53699449 8.09765625 -18.06640625 8.09765625 C-18.39640625 10.73765625 -18.72640625 13.37765625 -19.06640625 16.09765625 C-19.72640625 16.09765625 -20.38640625 16.09765625 -21.06640625 16.09765625 C-20.66571204 10.28759016 -19.99396131 6.66211214 -16.06640625 2.09765625 C-11.11183913 -1.2804577 -5.58635996 -2.43941238 0 0 Z " fill="#D1333E" transform="translate(211.06640625,70.90234375)"/>
<path d="M0 0 C0.66 0.33 1.32 0.66 2 1 C2.80380881 32.628846 2.80380881 32.628846 -3 43 C-3.05402274 40.89611431 -3.09280256 38.79183286 -3.125 36.6875 C-3.14820313 35.51574219 -3.17140625 34.34398437 -3.1953125 33.13671875 C-3 30 -3 30 -1 27 C-0.63112811 24.09355756 -0.63112811 24.09355756 -0.5859375 20.80078125 C-0.54726562 19.59228516 -0.50859375 18.38378906 -0.46875 17.13867188 C-0.4378125 15.87603516 -0.406875 14.61339844 -0.375 13.3125 C-0.33632812 12.03826172 -0.29765625 10.76402344 -0.2578125 9.45117188 C-0.16342314 6.30092708 -0.0778417 3.15069009 0 0 Z " fill="#D3323A" transform="translate(222,100)"/>
<path d="M0 0 C-3.26000591 1.72819591 -6.59826634 2.98721738 -10.0625 4.25 C-22.93192555 9.19646077 -33.3520859 16.10585144 -43 26 C-43.66 25.67 -44.32 25.34 -45 25 C-43.94643208 23.72175189 -42.88167217 22.45272507 -41.8125 21.1875 C-41.22082031 20.47980469 -40.62914062 19.77210937 -40.01953125 19.04296875 C-37.84133111 16.8394897 -35.68574596 15.52702659 -33 14 C-31.53586229 12.9245243 -30.07773672 11.84082687 -28.625 10.75 C-24.37809195 7.76826366 -20.03455442 5.31850965 -15.375 3.0625 C-14.7660791 2.75602539 -14.1571582 2.44955078 -13.52978516 2.13378906 C-8.75826922 -0.09249139 -5.14070933 -0.27802953 0 0 Z " fill="#0A2B65" transform="translate(93,39)"/>
<path d="M0 0 C0 0.66 0 1.32 0 2 C-11.47572816 8 -11.47572816 8 -18 8 C-18 8.66 -18 9.32 -18 10 C-25.41430591 11.83717315 -32.37685526 12.23576736 -40 12 C-37.0040716 9.0040716 -33.35583404 9.25154139 -29.3125 8.75 C-19.8437995 7.43918494 -8.78335719 0 0 0 Z " fill="#092E66" transform="translate(156,177)"/>
<path d="M0 0 C5.6981179 -0.17228352 10.66335482 0.32060182 16.1875 1.6875 C16.92000977 1.86466553 17.65251953 2.04183105 18.40722656 2.22436523 C27.05500685 4.3994757 35.41621877 7.22553919 43 12 C40 13 40 13 36.4375 11.25 C35.74269531 10.87875 35.04789063 10.5075 34.33203125 10.125 C30.02292746 8.04623636 24.83481619 6 20 6 C20 5.34 20 4.68 20 4 C18.741875 3.87625 17.48375 3.7525 16.1875 3.625 C10.73920821 3.02638195 5.37979246 2.03573574 0 1 C0 0.67 0 0.34 0 0 Z " fill="#0C2F68" transform="translate(123,7)"/>
<path d="M0 0 C0.495 1.98 0.495 1.98 1 4 C-0.12279462 4.98169476 -1.24831473 5.96027298 -2.375 6.9375 C-3.31472656 7.75541016 -3.31472656 7.75541016 -4.2734375 8.58984375 C-7.73303312 11.41544108 -10.65114587 11.3846731 -14.99609375 11.359375 C-22.04263189 10.51635613 -28.73881595 7.23645745 -35 4 C-29.55394207 4.36559185 -24.9677889 5.24316945 -19.9140625 7.296875 C-15.62213142 8.87350275 -11.35680368 9.56844933 -7 8 C-7 7.34 -7 6.68 -7 6 C-5.68 6 -4.36 6 -3 6 C-3 5.34 -3 4.68 -3 4 C-2.34 3.67 -1.68 3.34 -1 3 C-0.67 2.01 -0.34 1.02 0 0 Z " fill="#0D2F68" transform="translate(168,35)"/>
<path d="M0 0 C0.9178125 0.00451172 1.835625 0.00902344 2.78125 0.01367188 C5.02090391 0.02533674 7.26041545 0.04170386 9.5 0.0625 C9.5 0.3925 9.5 0.7225 9.5 1.0625 C7.65148437 1.13597656 7.65148437 1.13597656 5.765625 1.2109375 C-8.01593927 1.56486258 -8.01593927 1.56486258 -21.5 4.0625 C-21.83 4.7225 -22.16 5.3825 -22.5 6.0625 C-23.49 5.7325 -24.48 5.4025 -25.5 5.0625 C-27.60965701 5.50114156 -29.60563297 6.13857444 -31.66015625 6.78515625 C-32.26730469 6.87667969 -32.87445313 6.96820312 -33.5 7.0625 C-34.16 6.4025 -34.82 5.7425 -35.5 5.0625 C-32.83454836 4.4112817 -30.16780944 3.76642839 -27.5 3.125 C-26.75621094 2.94259766 -26.01242188 2.76019531 -25.24609375 2.57226562 C-16.74746166 0.53998404 -8.71261902 -0.08231399 0 0 Z " fill="#12336B" transform="translate(113.5,5.9375)"/>
<path d="M0 0 C-5.43355918 3.28277534 -10.91511973 6.14195513 -17.17578125 7.45703125 C-17.77777344 7.63621094 -18.37976563 7.81539062 -19 8 C-19.33 8.66 -19.66 9.32 -20 10 C-21.3870204 10.84252892 -22.81009165 11.62643838 -24.25 12.375 C-27.81581161 14.29155265 -30.93403313 16.32964176 -34 19 C-34.66 18.67 -35.32 18.34 -36 18 C-30.33748258 12.86462384 -24.03958262 9.22319233 -17.3125 5.6875 C-16.08309692 5.039021 -16.08309692 5.039021 -14.82885742 4.37744141 C-3.2261806 -1.6130903 -3.2261806 -1.6130903 0 0 Z " fill="#0B2C67" transform="translate(77,13)"/>
<path d="M0 0 C0.5775 0.20625 1.155 0.4125 1.75 0.625 C0.76 2.11 0.76 2.11 -0.25 3.625 C1.73 3.625 3.71 3.625 5.75 3.625 C5.42 4.285 5.09 4.945 4.75 5.625 C-3.44033227 5.21494384 -11.29043449 4.7196225 -19.25 2.625 C-19.25 2.295 -19.25 1.965 -19.25 1.625 C-17.91195312 1.65980469 -17.91195312 1.65980469 -16.546875 1.6953125 C-15.37640625 1.71335938 -14.2059375 1.73140625 -13 1.75 C-11.83984375 1.77320313 -10.6796875 1.79640625 -9.484375 1.8203125 C-5.92755983 1.60552898 -3.3575815 -0.55959692 0 0 Z " fill="#D43946" transform="translate(111.25,169.375)"/>
<path d="M0 0 C2 1 2 1 4 4 C4.99 3.67 5.98 3.34 7 3 C6.95875 4.175625 6.9175 5.35125 6.875 6.5625 C6.86016365 10.72409674 7.68829222 14.06487667 9 18 C9.99 18 10.98 18 12 18 C12.33 18.99 12.66 19.98 13 21 C12.34 21.66 11.68 22.32 11 23 C-0 5.57388316 -0 5.57388316 0 0 Z " fill="#0D2C6B" transform="translate(7,146)"/>
<path d="M0 0 C0.33 0 0.66 0 1 0 C1 2.31 1 4.62 1 7 C0.01 7.33 -0.98 7.66 -2 8 C-5.8526595 16.95661012 -5.67033238 27.40553539 -6 37 C-6.33 37 -6.66 37 -7 37 C-7.55367249 23.2966059 -6.41142106 12.41868377 0 0 Z " fill="#C13C42" transform="translate(52,84)"/>
<path d="M0 0 C3.63 0.33 7.26 0.66 11 1 C11 1.66 11 2.32 11 3 C16.28 3.99 21.56 4.98 27 6 C27 6.66 27 7.32 27 8 C20.27229374 7.84614393 14.22966222 6.67462295 7.875 4.5625 C7.21169678 4.34505127 6.54839355 4.12760254 5.86499023 3.90356445 C1.13062881 2.26125761 1.13062881 2.26125761 0 0 Z " fill="#0D2F6B" transform="translate(69,209)"/>
<path d="M0 0 C-3.35646071 3.88010292 -6.97905202 5.69032135 -11.5625 7.75 C-12.23474609 8.06582031 -12.90699219 8.38164062 -13.59960938 8.70703125 C-16.56412164 10.06711533 -18.70180885 11 -22 11 C-22 10.34 -22 9.68 -22 9 C-18.68885166 7.87119943 -15.41021743 6.78697325 -12 6 C-12 5.34 -12 4.68 -12 4 C-10.35 3.67 -8.7 3.34 -7 3 C-7 2.34 -7 1.68 -7 1 C-4.53721199 -0.231394 -2.7204945 -0.07159196 0 0 Z " fill="#CC333F" transform="translate(156,160)"/>
<path d="M0 0 C0.33 0.66 0.66 1.32 1 2 C2.32 2 3.64 2 5 2 C5 2.99 5 3.98 5 5 C5.556875 4.855625 6.11375 4.71125 6.6875 4.5625 C11.94136317 3.28453328 16.59708529 2.80353037 22 3 C22 3.33 22 3.66 22 4 C14.93805828 5.33830368 8.19798239 6.46438596 1 6 C0.34 5.34 -0.32 4.68 -1 4 C-0.625 1.875 -0.625 1.875 0 0 Z " fill="#083173" transform="translate(25,200)"/>
<path d="M0 0 C0.66 0 1.32 0 2 0 C2.02698422 2.43757413 2.04683099 4.87484915 2.0625 7.3125 C2.07087891 8.00279297 2.07925781 8.69308594 2.08789062 9.40429688 C2.10307906 12.5483025 2.00193327 14.99420019 1 18 C0.34 18 -0.32 18 -1 18 C-0.505 9.09 -0.505 9.09 0 0 Z " fill="#C6393F" transform="translate(195,106)"/>
<path d="M0 0 C0.66 0 1.32 0 2 0 C4.01670288 7.43659188 4.2137731 14.31604457 4 22 C3.67 22 3.34 22 3 22 C2.80083984 20.28490234 2.80083984 20.28490234 2.59765625 18.53515625 C2.4194969 17.0442438 2.24109918 15.55335982 2.0625 14.0625 C1.93198242 12.93038086 1.93198242 12.93038086 1.79882812 11.77539062 C1.65675901 8.07812542 1.65675901 8.07812542 0 5 C-0.04063832 3.33382885 -0.042721 1.66611905 0 0 Z " fill="#C43841" transform="translate(177,95)"/>
<path d="M0 0 C0.09539062 0.57621094 0.19078125 1.15242188 0.2890625 1.74609375 C1.15572775 4.49370832 2.43819471 5.94182079 4.375 8.0625 C4.98085937 8.73410156 5.58671875 9.40570313 6.2109375 10.09765625 C7.77830268 11.76426508 9.3699358 13.39493678 11 15 C9.68 15 8.36 15 7 15 C5.64172029 13.35360035 4.30745749 11.68704193 3 10 C2.01 10 1.02 10 0 10 C-0.33333333 8.66666667 -0.66666667 7.33333333 -1 6 C-1.226875 5.29875 -1.45375 4.5975 -1.6875 3.875 C-1.790625 3.25625 -1.89375 2.6375 -2 2 C-1.34 1.34 -0.68 0.68 0 0 Z " fill="#CF2F39" transform="translate(77,124)"/>
<path d="M0 0 C0.33 0 0.66 0 1 0 C0.57045059 6.25107435 -0.01401507 12.04204521 -2 18 C-2.33 18 -2.66 18 -3 18 C-3.08150744 15.93816367 -3.1394194 13.87538651 -3.1875 11.8125 C-3.22230469 10.66394531 -3.25710937 9.51539063 -3.29296875 8.33203125 C-2.97545546 4.72084678 -2.15237035 2.87886312 0 0 Z " fill="#C8383E" transform="translate(222,125)"/>
<path d="M0 0 C1.85646001 2.78469002 2.45157815 4.2681416 3.125 7.4375 C3.29257813 8.19933594 3.46015625 8.96117188 3.6328125 9.74609375 C4 12 4 12 4 16 C3.34 16 2.68 16 2 16 C1.87625 15.030625 1.7525 14.06125 1.625 13.0625 C1.41875 12.051875 1.2125 11.04125 1 10 C0.34 9.67 -0.32 9.34 -1 9 C-0.67 6.03 -0.34 3.06 0 0 Z " fill="#C9353B" transform="translate(219,82)"/>
<path d="M0 0 C0.33 0.66 0.66 1.32 1 2 C2.65 1.67 4.3 1.34 6 1 C5.01 2.98 4.02 4.96 3 7 C1.35 6.67 -0.3 6.34 -2 6 C-1.33333333 4 -0.66666667 2 0 0 Z " fill="#DB3544" transform="translate(156,152)"/>
<path d="M0 0 C0 3.59760476 -0.89512296 4.2215623 -3 7 C-3.70514846 9.14733927 -3.70514846 9.14733927 -4 11 C-4.66 11 -5.32 11 -6 11 C-6.66 12.32 -7.32 13.64 -8 15 C-8.33 14.34 -8.66 13.68 -9 13 C-7.63671875 10.46875 -7.63671875 10.46875 -5.6875 7.5 C-5.05199219 6.5203125 -4.41648437 5.540625 -3.76171875 4.53125 C-2 2 -2 2 0 0 Z " fill="#0B2C68" transform="translate(23,49)"/>
<path d="M0 0 C2 1 2 1 4 4 C4.99 3.67 5.98 3.34 7 3 C7 4.98 7 6.96 7 9 C4.625 8.4375 4.625 8.4375 2 7 C0.6875 3.375 0.6875 3.375 0 0 Z " fill="#063373" transform="translate(7,146)"/>
<path d="M0 0 C0.66 0.33 1.32 0.66 2 1 C0.58707905 5.8274799 -1.42974154 9.7162359 -4 14 C-4.33 13.01 -4.66 12.02 -5 11 C-5.66 10.67 -6.32 10.34 -7 10 C-6.401875 9.835 -5.80375 9.67 -5.1875 9.5 C-1.81472202 7.18723796 -1.1668452 3.80108663 0 0 Z " fill="#CB3540" transform="translate(213,152)"/>
<path d="M0 0 C2.109375 0.41796875 2.109375 0.41796875 4 1 C2.90716423 2.03295436 1.80029421 3.05107835 0.6875 4.0625 C0.07261719 4.63097656 -0.54226562 5.19945313 -1.17578125 5.78515625 C-1.77777344 6.18605469 -2.37976563 6.58695312 -3 7 C-3.99 6.67 -4.98 6.34 -6 6 C-5.01 5.67 -4.02 5.34 -3 5 C-3 4.34 -3 3.68 -3 3 C-1.75 1.3125 -1.75 1.3125 0 0 Z " fill="#CB2F3C" transform="translate(197,62)"/>
<path d="M0 0 C0.144375 0.598125 0.28875 1.19625 0.4375 1.8125 C0.8872439 3.56150404 1.42892341 5.28677023 2 7 C-1.45925163 5.7508258 -4.14693203 4.32472205 -7 2 C-4.525 2.495 -4.525 2.495 -2 3 C-2 2.34 -2 1.68 -2 1 C-1.34 0.67 -0.68 0.34 0 0 Z " fill="#D13039" transform="translate(138,80)"/>
<path d="M0 0 C1.15392455 2.3078491 1.53437166 4.47230331 2 7 C0.02 7.99 0.02 7.99 -2 9 C-3 6 -3 6 -1.5625 2.8125 C-1.046875 1.884375 -0.53125 0.95625 0 0 Z " fill="#0B3175" transform="translate(13,64)"/>
<path d="M0 0 C-0.33 0.99 -0.66 1.98 -1 3 C-1.928125 3.144375 -2.85625 3.28875 -3.8125 3.4375 C-7.00725111 3.92100111 -7.00725111 3.92100111 -10 5 C-10.66 4.34 -11.32 3.68 -12 3 C-10.56445975 2.49440092 -9.1264798 1.9957251 -7.6875 1.5 C-6.88699219 1.2215625 -6.08648437 0.943125 -5.26171875 0.65625 C-3 0 -3 0 0 0 Z " fill="#C9343B" transform="translate(95,53)"/>
<path d="M0 0 C0 0.66 0 1.32 0 2 C-0.99 2.33 -1.98 2.66 -3 3 C-4.68538601 4.99665314 -4.68538601 4.99665314 -6 7 C-6.66 5.68 -7.32 4.36 -8 3 C-5.48696401 0.48696401 -3.51117809 0 0 0 Z " fill="#D42F37" transform="translate(130,143)"/>
<path d="M0 0 C0.33 0 0.66 0 1 0 C0.67 3.3 0.34 6.6 0 10 C-0.66 10 -1.32 10 -2 10 C-1.125 2.25 -1.125 2.25 0 0 Z " fill="#C8333D" transform="translate(192,77)"/>
<path d="M0 0 C0.66 0 1.32 0 2 0 C1.39009109 3.55780196 0.4216319 6.6828589 -1 10 C-1.66 9.67 -2.32 9.34 -3 9 C-2.01 6.03 -1.02 3.06 0 0 Z " fill="#0C2E64" transform="translate(37,80)"/>
<path d="M0 0 C0.66 0.33 1.32 0.66 2 1 C1.67 1.66 1.34 2.32 1 3 C1.66 3.33 2.32 3.66 3 4 C0 5 0 5 -2.1875 4.0625 C-2.785625 3.711875 -3.38375 3.36125 -4 3 C-2.68 2.01 -1.36 1.02 0 0 Z " fill="#D0303A" transform="translate(139,137)"/>
<path d="M0 0 C-3.75 2 -3.75 2 -6 2 C-6 2.66 -6 3.32 -6 4 C-6.66 4 -7.32 4 -8 4 C-8 3.34 -8 2.68 -8 2 C-8.66 1.67 -9.32 1.34 -10 1 C-6.52674819 -0.1577506 -3.63932552 -0.06866652 0 0 Z " fill="#C93741" transform="translate(152,134)"/>
</svg>
